<svg xmlns="http://www.w3.org/2000/svg" viewBox="0 0 256 256">
  <defs>
    <linearGradient id="bg" x1="0%" y1="0%" x2="100%" y2="100%">
      <stop offset="0%" style="stop-color:#1e40af;stop-opacity:1" />
      <stop offset="100%" style="stop-color:#059669;stop-opacity:1" />
    </linearGradient>
  </defs>
  <rect width="256" height="256" fill="url(#bg)"/>
  <circle cx="90" cy="100" r="45" fill="#ffffff" opacity="0.95"/>
  <path d="M90 60 L90 85 L105 95 L95 115 L75 115 L65 95 Z" fill="#1e40af"/>
  <path d="M90 85 L105 95 L115 80" fill="none" stroke="#1e40af" stroke-width="3"/>
  <path d="M90 85 L75 95 L65 80" fill="none" stroke="#1e40af" stroke-width="3"/>
  <path d="M95 115 L105 130" fill="none" stroke="#1e40af" stroke-width="3"/>
  <path d="M75 115 L65 130" fill="none" stroke="#1e40af" stroke-width="3"/>
  <rect x="130" y="140" width="100" height="80" rx="8" fill="#ffffff" opacity="0.95"/>
  <polyline points="145,200 155,180 165,190 175,170 185,175 195,160 205,165 215,155" fill="none" stroke="#10b981" stroke-width="4" stroke-linecap="round" stroke-linejoin="round"/>
  <line x1="145" y1="165" x2="215" y2="165" stroke="#1e40af" stroke-width="2" opacity="0.3"/>
  <line x1="145" y1="185" x2="215" y2="185" stroke="#1e40af" stroke-width="2" opacity="0.3"/>
  <rect x="150" y="150" width="8" height="15" fill="#3b82f6" opacity="0.7"/>
  <rect x="165" y="155" width="8" height="10" fill="#3b82f6" opacity="0.7"/>
  <rect x="180" y="145" width="8" height="20" fill="#10b981" opacity="0.7"/>
  <rect x="195" y="150" width="8" height="15" fill="#10b981" opacity="0.7"/>
</svg>